# xmcd
#
# Track frame offsets: 
#        150
#        17704
#        32149
#        44463
#        55307
#        69309
#        80361
#        94042
#        108588
#        124139
#        141862
#        154008
#        170278
#        187974
#        206514
#        224025
#
# Disc length: 3221 seconds
#
# Revision: 0
# Processed by: cddbd v1.5.2PL0 Copyright (c) Steve Scherf et al.
# Submitted via: ExactAudioCopyFreeDBPlugin 1.0
#
DISCID=e00c9310
DTITLE=Brilha Som - 15 Anos de Brilha Som Vol. 9
DYEAR=2005
DGENRE=Bandas
TTITLE0=Boate Azul
TTITLE1=Pros Seus Braços
TTITLE2=Melhor Agora
TTITLE3=Alô Polícia
TTITLE4=Mordido de Amor
TTITLE5=Gato e Sapato
TTITLE6=Mulher Briguenta
TTITLE7=Me Condena
TTITLE8=Perdido de Paixão
TTITLE9=Teu Charme
TTITLE10=Mania de Baile
TTITLE11=Dor da Paixão
TTITLE12=Mil Vidas (Ao Vivo)
TTITLE13=Na Hora do Sim (Ao Vivo)
TTITLE14=Braços Abertos (Acústico e Ao Vivo)
TTITLE15=Braços Abertos (Remix)
EXTD=
EXTT0=
EXTT1=
EXTT2=
EXTT3=
EXTT4=
EXTT5=
EXTT6=
EXTT7=
EXTT8=
EXTT9=
EXTT10=
EXTT11=
EXTT12=
EXTT13=
EXTT14=
EXTT15=
PLAYORDER=
